<?xml version="1.0" encoding="iso-8859-1"?>
<!-- Generator: Adobe Illustrator 16.0.0, SVG Export Plug-In . SVG Version: 6.00 Build 0)  -->
<!DOCTYPE svg PUBLIC "-//W3C//DTD SVG 1.1//EN" "http://www.w3.org/Graphics/SVG/1.1/DTD/svg11.dtd">
<svg xmlns="http://www.w3.org/2000/svg" xmlns:xlink="http://www.w3.org/1999/xlink" version="1.1" id="Capa_1" x="0px" y="0px" width="512px" height="512px" viewBox="0 0 611.999 611.999" style="enable-background:new 0 0 611.999 611.999;" xml:space="preserve">
<g>
	<g>
		<path d="M611.677,236.743c-0.773-2.383-2.835-4.118-5.313-4.48l-203.457-29.571l-91.01-184.377    c-1.109-2.248-3.397-3.67-5.902-3.67c-2.508,0-4.796,1.422-5.906,3.67l-90.98,184.377L5.635,232.263    c-2.479,0.359-4.54,2.097-5.313,4.48c-0.774,2.383-0.128,5,1.669,6.749L149.216,386.99l-34.765,202.66    c-0.421,2.469,0.596,4.969,2.62,6.443c1.149,0.832,2.508,1.256,3.871,1.256c1.047,0,2.101-0.25,3.065-0.754l181.991-95.674    l181.98,95.674c2.222,1.17,4.904,0.975,6.933-0.5c2.024-1.471,3.041-3.969,2.62-6.438l-34.746-202.66l147.226-143.5    C611.805,241.744,612.45,239.126,611.677,236.743z M451.116,379.979c-1.551,1.512-2.259,3.691-1.894,5.826l33.073,192.928    l-173.237-91.08c-0.958-0.504-2.011-0.758-3.064-0.758s-2.107,0.254-3.065,0.754l-173.247,91.08l33.096-192.924    c0.362-2.135-0.342-4.314-1.896-5.83L20.731,243.376l193.7-28.149c2.143-0.309,3.996-1.656,4.958-3.601l86.609-175.519    l86.635,175.522c0.958,1.942,2.812,3.292,4.954,3.601l193.68,28.149L451.116,379.979z" fill="#e97e14"/>
		<path d="M310.062,75.254c-3.265-1.57-7.205-0.201-8.785,3.078l-62.275,129.337c-1.577,3.275-0.204,7.209,3.078,8.79    c0.918,0.441,1.893,0.652,2.851,0.652c2.449,0,4.799-1.373,5.935-3.73l62.275-129.34    C314.718,80.765,313.342,76.831,310.062,75.254z" fill="#e97e14"/>
		<path d="M184.943,384.873c-3.627-0.621-6.982,1.818-7.584,5.402l-24.547,146.109c-0.603,3.586,1.817,6.982,5.405,7.584    c0.369,0.062,0.737,0.094,1.096,0.094c3.157,0,5.948-2.279,6.488-5.494l24.547-146.109    C190.947,388.871,188.531,385.473,184.943,384.873z" fill="#e97e14"/>
		<path d="M97.807,242.488l-38.09,8.216c-2.403,0.52-4.319,2.334-4.964,4.708c-0.645,2.373,0.083,4.908,1.893,6.574l28.382,26.137    c1.264,1.166,2.861,1.742,4.457,1.742c1.778,0,3.549-0.714,4.846-2.124c2.466-2.673,2.291-6.84-0.382-9.303l-19.04-17.539    l25.68-5.54c3.552-0.767,5.813-4.27,5.046-7.825C104.868,243.982,101.375,241.714,97.807,242.488z" fill="#e97e14"/>
	</g>
</g>
<g>
</g>
<g>
</g>
<g>
</g>
<g>
</g>
<g>
</g>
<g>
</g>
<g>
</g>
<g>
</g>
<g>
</g>
<g>
</g>
<g>
</g>
<g>
</g>
<g>
</g>
<g>
</g>
<g>
</g>
</svg>
